<svg id="visual" viewBox="0 0 960 300" width="960" height="300" xmlns="http://www.w3.org/2000/svg" xmlns:xlink="http://www.w3.org/1999/xlink" version="1.1"><rect x="0" y="0" width="960" height="300" fill="#202731"></rect><path d="M0 154L16 153.2C32 152.3 64 150.7 96 144.3C128 138 160 127 192 130C224 133 256 150 288 156.3C320 162.7 352 158.3 384 153.2C416 148 448 142 480 141.7C512 141.3 544 146.7 576 150.3C608 154 640 156 672 155C704 154 736 150 768 149.3C800 148.7 832 151.3 864 147.7C896 144 928 134 944 129L960 124L960 0L944 0C928 0 896 0 864 0C832 0 800 0 768 0C736 0 704 0 672 0C640 0 608 0 576 0C544 0 512 0 480 0C448 0 416 0 384 0C352 0 320 0 288 0C256 0 224 0 192 0C160 0 128 0 96 0C64 0 32 0 16 0L0 0Z" fill="#ffb0aa"></path><path d="M0 136L16 129.2C32 122.3 64 108.7 96 101.5C128 94.3 160 93.7 192 92.8C224 92 256 91 288 93.2C320 95.3 352 100.7 384 99.3C416 98 448 90 480 88.8C512 87.7 544 93.3 576 101.5C608 109.7 640 120.3 672 124.8C704 129.3 736 127.7 768 122.3C800 117 832 108 864 108.7C896 109.3 928 119.7 944 124.8L960 130L960 0L944 0C928 0 896 0 864 0C832 0 800 0 768 0C736 0 704 0 672 0C640 0 608 0 576 0C544 0 512 0 480 0C448 0 416 0 384 0C352 0 320 0 288 0C256 0 224 0 192 0C160 0 128 0 96 0C64 0 32 0 16 0L0 0Z" fill="#f88c82"></path><path d="M0 71L16 69.3C32 67.7 64 64.3 96 68.3C128 72.3 160 83.7 192 83.3C224 83 256 71 288 70.3C320 69.7 352 80.3 384 85.7C416 91 448 91 480 90.3C512 89.7 544 88.3 576 82.5C608 76.7 640 66.3 672 61.7C704 57 736 58 768 58.2C800 58.3 832 57.7 864 61.7C896 65.7 928 74.3 944 78.7L960 83L960 0L944 0C928 0 896 0 864 0C832 0 800 0 768 0C736 0 704 0 672 0C640 0 608 0 576 0C544 0 512 0 480 0C448 0 416 0 384 0C352 0 320 0 288 0C256 0 224 0 192 0C160 0 128 0 96 0C64 0 32 0 16 0L0 0Z" fill="#ed675a"></path><path d="M0 59L16 55.8C32 52.7 64 46.3 96 44.7C128 43 160 46 192 43.7C224 41.3 256 33.7 288 31.8C320 30 352 34 384 39C416 44 448 50 480 52.7C512 55.3 544 54.7 576 54.3C608 54 640 54 672 50.5C704 47 736 40 768 39C800 38 832 43 864 42.7C896 42.3 928 36.7 944 33.8L960 31L960 0L944 0C928 0 896 0 864 0C832 0 800 0 768 0C736 0 704 0 672 0C640 0 608 0 576 0C544 0 512 0 480 0C448 0 416 0 384 0C352 0 320 0 288 0C256 0 224 0 192 0C160 0 128 0 96 0C64 0 32 0 16 0L0 0Z" fill="#dd3f31"></path></svg>